<svg xmlns="http://www.w3.org/2000/svg" xmlns:xlink="http://www.w3.org/1999/xlink" xmlns:lucid="lucid" width="1360" height="1760"><g transform="translate(0 0)" lucid:page-tab-id="fwQcDkAJnwES"><path d="M0 0h1360v1760H0z" fill="#fff"/><path d="M253.15 77c0-4.42 3.58-8 8-8h836.75c4.4 0 8 3.58 8 8v25.16c0 4.4-3.6 8-8 8H261.15c-4.42 0-8-3.6-8-8z" stroke="#000" stroke-opacity="0" stroke-width="2" fill="#fff" fill-opacity="0"/><use xlink:href="#a" transform="matrix(1,0,0,1,257.1465527853429,72.99999999994924) translate(329.1155555555556 25.782777777777778)"/><use xlink:href="#b" transform="matrix(1,0,0,1,257.1465527853429,72.99999999994924) translate(391.6118518518519 25.782777777777778)"/><use xlink:href="#c" transform="matrix(1,0,0,1,257.1465527853429,72.99999999994924) translate(429.4155555555556 25.782777777777778)"/><path d="M523.44 108.8h321M523.47 108.8h-1.03M844.42 108.8h1.03" stroke="#a9afb8" stroke-width="2" fill="none"/><path d="M253.15 118.16c0-4.42 3.58-8 8-8h837.7c4.42 0 8 3.58 8 8V121c0 4.42-3.58 8-8 8h-837.7c-4.42 0-8-3.58-8-8z" stroke="#000" stroke-opacity="0" stroke-width="2" fill="#fff" fill-opacity="0"/><use xlink:href="#d" transform="matrix(1,0,0,1,257.1465527853434,114.15522395684805) translate(215.3698251028807 14.917037037037037)"/><use xlink:href="#e" transform="matrix(1,0,0,1,257.1465527853434,114.15522395684805) translate(290.8315534979424 14.917037037037037)"/><use xlink:href="#f" transform="matrix(1,0,0,1,257.1465527853434,114.15522395684805) translate(372.2843312757202 14.917037037037037)"/><use xlink:href="#g" transform="matrix(1,0,0,1,257.1465527853434,114.15522395684805) translate(437.63350823045266 14.917037037037037)"/><use xlink:href="#h" transform="matrix(1,0,0,1,257.1465527853434,114.15522395684805) translate(521.9755864197531 14.917037037037037)"/><use xlink:href="#i" transform="matrix(1,0,0,1,257.1465527853434,114.15522395684805) translate(534.425072016461 14.917037037037037)"/><use xlink:href="#j" transform="matrix(1,0,0,1,257.1465527853434,114.15522395684805) translate(586.2625205761317 14.917037037037037)"/><use xlink:href="#k" transform="matrix(1,0,0,1,257.1465527853434,114.15522395684805) translate(603.2584053497942 14.917037037037037)"/><path d="M120 419c0-4.42 3.58-8 8-8h244c4.42 0 8 3.58 8 8v280c0 4.42-3.58 8-8 8H128c-4.42 0-8-3.58-8-8z" fill="#fff"/><path d="M120 419c0-4.42 3.58-8 8-8h244c4.42 0 8 3.58 8 8v280c0 4.42-3.58 8-8 8H128c-4.42 0-8-3.58-8-8zM120 451h260M252.82 451v256" stroke="#333" fill="none"/><use xlink:href="#l" transform="matrix(1,0,0,1,130,411.0000000000507) translate(84.57499999999999 23.6)"/><use xlink:href="#m" transform="matrix(1,0,0,1,125,453.5000000000507) translate(21.099999999999994 17.1)"/><use xlink:href="#n" transform="matrix(1,0,0,1,125,453.5000000000507) translate(40.05 17.1)"/><use xlink:href="#o" transform="matrix(1,0,0,1,257.81837244340005,453.5000000000507) translate(49.525 17.1)"/><use xlink:href="#p" transform="matrix(1,0,0,1,125,485.5000000000507) translate(18.599999999999994 17.1)"/><use xlink:href="#q" transform="matrix(1,0,0,1,257.81837244340005,485.5000000000507) translate(12.274999999999999 17.1)"/><use xlink:href="#r" transform="matrix(1,0,0,1,125,517.5000000000507) translate(23.049999999999997 17.1)"/><use xlink:href="#q" transform="matrix(1,0,0,1,257.81837244340005,517.5000000000507) translate(12.274999999999999 17.1)"/><use xlink:href="#s" transform="matrix(1,0,0,1,125,549.5000000000507) translate(29.574999999999996 17.1)"/><use xlink:href="#q" transform="matrix(1,0,0,1,257.81837244340005,549.5000000000507) translate(12.274999999999999 17.1)"/><use xlink:href="#t" transform="matrix(1,0,0,1,125,581.5000000000507) translate(29.574999999999996 17.1)"/><use xlink:href="#q" transform="matrix(1,0,0,1,257.81837244340005,581.5000000000507) translate(12.274999999999999 17.1)"/><use xlink:href="#u" transform="matrix(1,0,0,1,125,613.5000000000507) translate(24.099999999999994 17.1)"/><use xlink:href="#q" transform="matrix(1,0,0,1,257.81837244340005,613.5000000000507) translate(12.274999999999999 17.1)"/><use xlink:href="#v" transform="matrix(1,0,0,1,125,645.5000000000507) translate(34.075 17.1)"/><use xlink:href="#q" transform="matrix(1,0,0,1,257.81837244340005,645.5000000000507) translate(12.274999999999999 17.1)"/><use xlink:href="#w" transform="matrix(1,0,0,1,125,677.5000000000507) translate(27.549999999999997 17.1)"/><use xlink:href="#q" transform="matrix(1,0,0,1,257.81837244340005,677.5000000000507) translate(12.274999999999999 17.1)"/><path d="M140 228c0-4.42 3.58-8 8-8h184c4.42 0 8 3.58 8 8v88c0 4.42-3.58 8-8 8H148c-4.42 0-8-3.58-8-8z" fill="#fff"/><path d="M140 228c0-4.42 3.58-8 8-8h184c4.42 0 8 3.58 8 8v88c0 4.42-3.58 8-8 8H148c-4.42 0-8-3.58-8-8zM140 260h200M234.68 260v64" stroke="#333" fill="none"/><use xlink:href="#x" transform="matrix(1,0,0,1,150,220) translate(76.55 23.6)"/><use xlink:href="#m" transform="matrix(1,0,0,1,145,262.5) translate(19.575 17.1)"/><use xlink:href="#y" transform="matrix(1,0,0,1,145,262.5) translate(38.525 17.1)"/><use xlink:href="#o" transform="matrix(1,0,0,1,239.67823507877682,262.5) translate(38.525 17.1)"/><use xlink:href="#z" transform="matrix(1,0,0,1,145,294.5) translate(10.049999999999997 17.1)"/><use xlink:href="#A" transform="matrix(1,0,0,1,239.67823507877682,294.5) translate(2.0999999999999943 17.1)"/><path d="M240 343.9v47.2" stroke="#333" fill="none"/><path d="M250 324.72l-10 20-10-20M240 324.72v20M230 410.28l10-20 10 20M240 410.28v-20" stroke="#333" fill="#fff"/><path d="M1020 324c0-4.42 3.58-8 8-8h244c4.42 0 8 3.58 8 8v88c0 4.42-3.58 8-8 8h-244c-4.42 0-8-3.58-8-8z" fill="#fff"/><path d="M1020 324c0-4.42 3.58-8 8-8h244c4.42 0 8 3.58 8 8v88c0 4.42-3.58 8-8 8h-244c-4.42 0-8-3.58-8-8zM1020 356h260M1161.7 356v64" stroke="#333" fill="none"/><use xlink:href="#B" transform="matrix(1,0,0,1,1030,316) translate(92.025 23.6)"/><use xlink:href="#C" transform="matrix(1,0,0,1,1025,358.5) translate(31.049999999999997 17.1)"/><use xlink:href="#o" transform="matrix(1,0,0,1,1166.688391693367,358.5) translate(45.025 17.1)"/><use xlink:href="#D" transform="matrix(1,0,0,1,1025,390.5) translate(10.024999999999999 17.1)"/><use xlink:href="#q" transform="matrix(1,0,0,1,1166.688391693367,390.5) translate(7.774999999999999 17.1)"/><path d="M560 428c0-4.42 3.58-8 8-8h184c4.42 0 8 3.58 8 8v88c0 4.42-3.58 8-8 8H568c-4.42 0-8-3.58-8-8z" fill="#fff"/><path d="M560 428c0-4.42 3.58-8 8-8h184c4.42 0 8 3.58 8 8v88c0 4.42-3.58 8-8 8H568c-4.42 0-8-3.58-8-8zM560 460h200M655.06 460v64" stroke="#333" fill="none"/><use xlink:href="#E" transform="matrix(1,0,0,1,570,420) translate(59.55 23.6)"/><use xlink:href="#F" transform="matrix(1,0,0,1,565,462.5) translate(5.524999999999999 17.1)"/><use xlink:href="#G" transform="matrix(1,0,0,1,565,462.5) translate(25.525 17.1)"/><use xlink:href="#o" transform="matrix(1,0,0,1,660.0645585082088,462.5) translate(38.025 17.1)"/><use xlink:href="#H" transform="matrix(1,0,0,1,565,494.5) translate(18.025 17.1)"/><use xlink:href="#I" transform="matrix(1,0,0,1,660.0645585082088,494.5) translate(28.525 17.1)"/><path d="M680 588c0-4.42 3.58-8 8-8h184c4.42 0 8 3.58 8 8v120c0 4.42-3.58 8-8 8H688c-4.42 0-8-3.58-8-8z" fill="#fff"/><path d="M680 588c0-4.42 3.58-8 8-8h184c4.42 0 8 3.58 8 8v120c0 4.42-3.58 8-8 8H688c-4.42 0-8-3.58-8-8zM680 620h200M782.82 620v96" stroke="#333" fill="none"/><use xlink:href="#J" transform="matrix(1,0,0,1,690,580) translate(29.124999999999993 23.6)"/><use xlink:href="#K" transform="matrix(1,0,0,1,690,580) translate(89.975 23.6)"/><use xlink:href="#L" transform="matrix(1,0,0,1,685,622.5) translate(11.599999999999994 17.1)"/><use xlink:href="#o" transform="matrix(1,0,0,1,787.8185779673643,622.5) translate(34.525 17.1)"/><use xlink:href="#M" transform="matrix(1,0,0,1,685,654.5) translate(10.549999999999997 17.1)"/><use xlink:href="#o" transform="matrix(1,0,0,1,787.8185779673643,654.5) translate(34.525 17.1)"/><use xlink:href="#N" transform="matrix(1,0,0,1,685,686.5) translate(21.049999999999997 17.1)"/><use xlink:href="#O" transform="matrix(1,0,0,1,787.8185779673643,686.5) translate(17.025 17.1)"/><path d="M660 808c0-4.42 3.58-8 8-8h224c4.42 0 8 3.58 8 8v120c0 4.42-3.58 8-8 8H668c-4.42 0-8-3.58-8-8z" fill="#fff"/><path d="M660 808c0-4.42 3.58-8 8-8h224c4.42 0 8 3.58 8 8v120c0 4.42-3.58 8-8 8H668c-4.42 0-8-3.58-8-8zM660 840h240M780.7 840v96" stroke="#333" fill="none"/><use xlink:href="#P" transform="matrix(1,0,0,1,670,800) translate(89.525 23.6)"/><use xlink:href="#Q" transform="matrix(1,0,0,1,665,842.5) translate(28.05 17.1)"/><use xlink:href="#o" transform="matrix(1,0,0,1,785.7013033950091,842.5) translate(45.525 17.1)"/><use xlink:href="#R" transform="matrix(1,0,0,1,665,874.5) translate(14.549999999999997 17.1)"/><use xlink:href="#q" transform="matrix(1,0,0,1,785.7013033950091,874.5) translate(8.274999999999999 17.1)"/><use xlink:href="#S" transform="matrix(1,0,0,1,665,906.5) translate(9.574999999999996 17.1)"/><use xlink:href="#q" transform="matrix(1,0,0,1,785.7013033950091,906.5) translate(8.274999999999999 17.1)"/><path d="M660 544.5c0 4.14 3.36 7.5 7.5 7.5h104.4c4.48 0 8.1 3.62 8.1 8.1" stroke="#333" fill="none"/><path d="M650 544.5h20M660 524.5v20M770 579.28l10-20 10 20M780 579.28v-20" stroke="#333" fill="#fff"/><path d="M780 735.9v43.6" stroke="#333" fill="none"/><path d="M790 716.72l-10 20-10-20M780 716.72v20M790 779.5h-20M780 799.5v-20" stroke="#333" fill="#fff"/><path d="M540.1 476.02H400.5" stroke="#333" fill="none"/><path d="M559.28 486.02l-20-10 20-10M559.28 476.02h-20M400.5 486.02v-20M380.5 476.02h20" stroke="#333" fill="#fff"/><path d="M780.5 476.02H1138c6.63 0 12-5.37 12-12V440.5" stroke="#333" fill="none"/><path d="M780.5 486.02v-20M760.5 476.02h20M1140 440.5h20M1150 420.5v20" stroke="#333" fill="#fff"/><path d="M1060 568c0-4.42 3.58-8 8-8h224c4.42 0 8 3.58 8 8v152c0 4.42-3.58 8-8 8h-224c-4.42 0-8-3.58-8-8z" fill="#fff"/><path d="M1060 568c0-4.42 3.58-8 8-8h224c4.42 0 8 3.58 8 8v152c0 4.42-3.58 8-8 8h-224c-4.42 0-8-3.58-8-8zM1060 600h240M1184.44 600v128" stroke="#333" fill="none"/><use xlink:href="#T" transform="matrix(1,0,0,1,1070,560) translate(75.05 23.6)"/><use xlink:href="#U" transform="matrix(1,0,0,1,1065,602.5) translate(15.574999999999996 17.1)"/><use xlink:href="#V" transform="matrix(1,0,0,1,1189.435215148948,602.5) translate(43 17.1)"/><use xlink:href="#s" transform="matrix(1,0,0,1,1065,634.5) translate(25.574999999999996 17.1)"/><use xlink:href="#q" transform="matrix(1,0,0,1,1189.435215148948,634.5) translate(6.274999999999999 17.1)"/><use xlink:href="#W" transform="matrix(1,0,0,1,1065,666.5) translate(10.599999999999994 17.1)"/><use xlink:href="#q" transform="matrix(1,0,0,1,1189.435215148948,666.5) translate(6.274999999999999 17.1)"/><use xlink:href="#u" transform="matrix(1,0,0,1,1065,698.5) translate(20.099999999999994 17.1)"/><use xlink:href="#q" transform="matrix(1,0,0,1,1189.435215148948,698.5) translate(6.274999999999999 17.1)"/><path d="M500 208c0-4.42 3.58-8 8-8h304c4.42 0 8 3.58 8 8v88c0 4.42-3.58 8-8 8H508c-4.42 0-8-3.58-8-8z" fill="#fff"/><path d="M500 208c0-4.42 3.58-8 8-8h304c4.42 0 8 3.58 8 8v88c0 4.42-3.58 8-8 8H508c-4.42 0-8-3.58-8-8zM500 240h320M650.54 240v64" stroke="#333" fill="none"/><use xlink:href="#X" transform="matrix(1,0,0,1,510,200) translate(91.525 23.6)"/><use xlink:href="#Y" transform="matrix(1,0,0,1,510,200) translate(141.47500000000002 23.6)"/><use xlink:href="#Z" transform="matrix(1,0,0,1,510,200) translate(166.47500000000002 23.6)"/><use xlink:href="#aa" transform="matrix(1,0,0,1,505,242.5) translate(20.049999999999997 17.1)"/><use xlink:href="#o" transform="matrix(1,0,0,1,655.5438134122205,242.5) translate(70.525 17.1)"/><use xlink:href="#W" transform="matrix(1,0,0,1,505,274.5) translate(23.599999999999994 17.1)"/><use xlink:href="#q" transform="matrix(1,0,0,1,655.5438134122205,274.5) translate(33.275 17.1)"/><path d="M660 324.5v75" stroke="#333" fill="none"/><path d="M650 324.5h20M660 304.5v20M650 419.28l10-20 10 20M660 419.28v-20M670 399.28h-20" stroke="#333" fill="#fff"/><path d="M280 808c0-4.42 3.58-8 8-8h224c4.42 0 8 3.58 8 8v120c0 4.42-3.58 8-8 8H288c-4.42 0-8-3.58-8-8z" fill="#fff"/><path d="M280 808c0-4.42 3.58-8 8-8h224c4.42 0 8 3.58 8 8v120c0 4.42-3.58 8-8 8H288c-4.42 0-8-3.58-8-8zM280 840h240M410.26 840v96" stroke="#333" fill="none"/><use xlink:href="#ab" transform="matrix(1,0,0,1,290,800) translate(58.074999999999996 23.6)"/><use xlink:href="#ac" transform="matrix(1,0,0,1,285,842.5) translate(21.575000000000003 17.1)"/><use xlink:href="#o" transform="matrix(1,0,0,1,415.2576174609428,842.5) translate(40.525 17.1)"/><g><use xlink:href="#ab" transform="matrix(1,0,0,1,285,874.5) translate(8.074999999999996 17.1)"/></g><g><use xlink:href="#q" transform="matrix(1,0,0,1,415.2576174609428,874.5) translate(3.2749999999999986 17.1)"/></g><g><use xlink:href="#ad" transform="matrix(1,0,0,1,285,906.5) translate(37.55 17.1)"/></g><g><use xlink:href="#ae" transform="matrix(1,0,0,1,415.2576174609428,906.5) translate(21.049999999999997 17.1)"/></g><path d="M540.5 855.95h99.6" stroke="#333" fill="none"/><path d="M540.5 865.95v-20M520.5 855.95h20M659.28 865.95l-20-10 20-10M659.28 855.95h-20" stroke="#333" fill="#fff"/><path d="M1180 539.5v-99.6" stroke="#333" fill="none"/><path d="M1190 539.5h-20M1180 559.5v-20M1190 420.72l-10 20-10-20M1180 420.72v20" stroke="#333" fill="#fff"/><defs><path fill="#a9afb8" d="M24 0v-248h195v40H76v63h132v40H76v65h150V0H24" id="af"/><path fill="#a9afb8" d="M240-174c0 40-23 61-54 70L253 0h-59l-57-94H76V0H24v-248c93 4 217-23 216 74zM76-134c48-2 112 12 112-38 0-48-66-32-112-35v73" id="ag"/><path fill="#a9afb8" d="M24-248c120-7 223 5 221 122C244-46 201 0 124 0H24v-248zM76-40c74 7 117-18 117-86 0-67-45-88-117-82v168" id="ah"/><g id="a"><use transform="matrix(0.0728395061728395,0,0,0.0728395061728395,0,0)" xlink:href="#af"/><use transform="matrix(0.0728395061728395,0,0,0.0728395061728395,17.48148148148148,0)" xlink:href="#ag"/><use transform="matrix(0.0728395061728395,0,0,0.0728395061728395,36.34691358024691,0)" xlink:href="#ah"/></g><path fill="#a9afb8" d="M88-194c31-1 46 15 58 34l-1-101h50l1 261h-48c-2-10 0-23-3-31C134-8 116 4 84 4 32 4 16-41 15-95c0-56 19-97 73-99zm17 164c33 0 40-30 41-66 1-37-9-64-41-64s-38 30-39 65c0 43 13 65 39 65" id="ai"/><path fill="#a9afb8" d="M185-48c-13 30-37 53-82 52C43 2 14-33 14-96s30-98 90-98c62 0 83 45 84 108H66c0 31 8 55 39 56 18 0 30-7 34-22zm-45-69c5-46-57-63-70-21-2 6-4 13-4 21h74" id="aj"/><g id="b"><use transform="matrix(0.0728395061728395,0,0,0.0728395061728395,0,0)" xlink:href="#ai"/><use transform="matrix(0.0728395061728395,0,0,0.0728395061728395,15.95185185185185,0)" xlink:href="#aj"/></g><path fill="#a9afb8" d="M186 0v-106H76V0H24v-248h52v99h110v-99h50V0h-50" id="ak"/><path fill="#a9afb8" d="M110-194c64 0 96 36 96 99 0 64-35 99-97 99-61 0-95-36-95-99 0-62 34-99 96-99zm-1 164c35 0 45-28 45-65 0-40-10-65-43-65-34 0-45 26-45 65 0 36 10 65 43 65" id="al"/><path fill="#a9afb8" d="M190-63c-7 42-38 67-86 67-59 0-84-38-90-98-12-110 154-137 174-36l-49 2c-2-19-15-32-35-32-30 0-35 28-38 64-6 74 65 87 74 30" id="am"/><path fill="#a9afb8" d="M147 0L96-86 75-71V0H25v-261h50v150l67-79h53l-66 74L201 0h-54" id="an"/><path fill="#a9afb8" d="M123 10C108 53 80 86 19 72V37c35 8 53-11 59-39L3-190h52l48 148c12-52 28-100 44-148h51" id="ao"/><g id="c"><use transform="matrix(0.0728395061728395,0,0,0.0728395061728395,0,0)" xlink:href="#ak"/><use transform="matrix(0.0728395061728395,0,0,0.0728395061728395,18.86543209876543,0)" xlink:href="#al"/><use transform="matrix(0.0728395061728395,0,0,0.0728395061728395,34.81728395061728,0)" xlink:href="#am"/><use transform="matrix(0.0728395061728395,0,0,0.0728395061728395,49.38518518518518,0)" xlink:href="#an"/><use transform="matrix(0.0728395061728395,0,0,0.0728395061728395,63.95308641975308,0)" xlink:href="#aj"/><use transform="matrix(0.0728395061728395,0,0,0.0728395061728395,78.52098765432098,0)" xlink:href="#ao"/></g><path fill="#a9afb8" d="M212-179c-10-28-35-45-73-45-59 0-87 40-87 99 0 60 29 101 89 101 43 0 62-24 78-52l27 14C228-24 195 4 139 4 59 4 22-46 18-125c-6-104 99-153 187-111 19 9 31 26 39 46" id="ap"/><path fill="#a9afb8" d="M233-177c-1 41-23 64-60 70L243 0h-38l-65-103H63V0H30v-248c88 3 205-21 203 71zM63-129c60-2 137 13 137-47 0-61-80-42-137-45v92" id="aq"/><path fill="#a9afb8" d="M33 0v-248h34V0H33" id="ar"/><path fill="#a9afb8" d="M185-189c-5-48-123-54-124 2 14 75 158 14 163 119 3 78-121 87-175 55-17-10-28-26-33-46l33-7c5 56 141 63 141-1 0-78-155-14-162-118-5-82 145-84 179-34 5 7 8 16 11 25" id="as"/><path fill="#a9afb8" d="M127-220V0H93v-220H8v-28h204v28h-85" id="at"/><path fill="#a9afb8" d="M205 0l-28-72H64L36 0H1l101-248h38L239 0h-34zm-38-99l-47-123c-12 45-31 82-46 123h93" id="au"/><path fill="#a9afb8" d="M190 0L58-211 59 0H30v-248h39L202-35l-2-213h31V0h-41" id="av"/><g id="d"><use transform="matrix(0.04248971193415638,0,0,0.04248971193415638,0,0)" xlink:href="#ap"/><use transform="matrix(0.04248971193415638,0,0,0.04248971193415638,11.004835390946502,0)" xlink:href="#aq"/><use transform="matrix(0.04248971193415638,0,0,0.04248971193415638,22.009670781893004,0)" xlink:href="#ar"/><use transform="matrix(0.04248971193415638,0,0,0.04248971193415638,26.25864197530864,0)" xlink:href="#as"/><use transform="matrix(0.04248971193415638,0,0,0.04248971193415638,36.45617283950617,0)" xlink:href="#at"/><use transform="matrix(0.04248971193415638,0,0,0.04248971193415638,45.761419753086415,0)" xlink:href="#ar"/><use transform="matrix(0.04248971193415638,0,0,0.04248971193415638,50.010390946502056,0)" xlink:href="#au"/><use transform="matrix(0.04248971193415638,0,0,0.04248971193415638,60.20792181069959,0)" xlink:href="#av"/></g><path fill="#a9afb8" d="M30 0v-248h187v28H63v79h144v27H63v87h162V0H30" id="aw"/><path fill="#a9afb8" d="M143 4C61 4 22-44 18-125c-5-107 100-154 193-111 17 8 29 25 37 43l-32 9c-13-25-37-40-76-40-61 0-88 39-88 99 0 61 29 100 91 101 35 0 62-11 79-27v-45h-74v-28h105v86C228-13 192 4 143 4" id="ax"/><path fill="#a9afb8" d="M232-93c-1 65-40 97-104 97C67 4 28-28 28-90v-158h33c8 89-33 224 67 224 102 0 64-133 71-224h33v155" id="ay"/><path fill="#a9afb8" d="M30-248c118-7 216 8 213 122C240-48 200 0 122 0H30v-248zM63-27c89 8 146-16 146-99s-60-101-146-95v194" id="az"/><path fill="#a9afb8" d="M140-251c81 0 123 46 123 126C263-46 219 4 140 4 59 4 17-45 17-125s42-126 123-126zm0 227c63 0 89-41 89-101s-29-99-89-99c-61 0-89 39-89 99S79-25 140-24" id="aA"/><g id="e"><use transform="matrix(0.04248971193415638,0,0,0.04248971193415638,0,0)" xlink:href="#as"/><use transform="matrix(0.04248971193415638,0,0,0.04248971193415638,10.19753086419753,0)" xlink:href="#aw"/><use transform="matrix(0.04248971193415638,0,0,0.04248971193415638,20.39506172839506,0)" xlink:href="#ax"/><use transform="matrix(0.04248971193415638,0,0,0.04248971193415638,32.29218106995884,0)" xlink:href="#ay"/><use transform="matrix(0.04248971193415638,0,0,0.04248971193415638,43.29701646090535,0)" xlink:href="#av"/><use transform="matrix(0.04248971193415638,0,0,0.04248971193415638,54.30185185185185,0)" xlink:href="#az"/><use transform="matrix(0.04248971193415638,0,0,0.04248971193415638,65.30668724279835,0)" xlink:href="#aA"/></g><path fill="#a9afb8" d="M63-220v92h138v28H63V0H30v-248h175v28H63" id="aB"/><path fill="#a9afb8" d="M30 0v-248h33v221h125V0H30" id="aC"/><g id="f"><use transform="matrix(0.04248971193415638,0,0,0.04248971193415638,0,0)" xlink:href="#aB"/><use transform="matrix(0.04248971193415638,0,0,0.04248971193415638,9.305246913580246,0)" xlink:href="#aC"/><use transform="matrix(0.04248971193415638,0,0,0.04248971193415638,17.80318930041152,0)" xlink:href="#aA"/><use transform="matrix(0.04248971193415638,0,0,0.04248971193415638,29.7003086419753,0)" xlink:href="#aq"/><use transform="matrix(0.04248971193415638,0,0,0.04248971193415638,40.70514403292181,0)" xlink:href="#aw"/><use transform="matrix(0.04248971193415638,0,0,0.04248971193415638,50.90267489711934,0)" xlink:href="#as"/></g><path fill="#a9afb8" d="M240 0l2-218c-23 76-54 145-80 218h-23L58-218 59 0H30v-248h44l77 211c21-75 51-140 76-211h43V0h-30" id="aD"/><path fill="#a9afb8" d="M160-131c35 5 61 23 61 61C221 17 115-2 30 0v-248c76 3 177-17 177 60 0 33-19 50-47 57zm-97-11c50-1 110 9 110-42 0-47-63-36-110-37v79zm0 115c55-2 124 14 124-45 0-56-70-42-124-44v89" id="aE"/><path fill="#a9afb8" d="M137-103V0h-34v-103L8-248h37l75 118 75-118h37" id="aF"/><g id="g"><use transform="matrix(0.04248971193415638,0,0,0.04248971193415638,0,0)" xlink:href="#au"/><use transform="matrix(0.04248971193415638,0,0,0.04248971193415638,10.19753086419753,0)" xlink:href="#as"/><use transform="matrix(0.04248971193415638,0,0,0.04248971193415638,20.39506172839506,0)" xlink:href="#ar"/><use transform="matrix(0.04248971193415638,0,0,0.04248971193415638,24.644032921810698,0)" xlink:href="#aD"/><use transform="matrix(0.04248971193415638,0,0,0.04248971193415638,37.34845679012346,0)" xlink:href="#aE"/><use transform="matrix(0.04248971193415638,0,0,0.04248971193415638,47.54598765432099,0)" xlink:href="#au"/><use transform="matrix(0.04248971193415638,0,0,0.04248971193415638,56.5962962962963,0)" xlink:href="#aF"/><use transform="matrix(0.04248971193415638,0,0,0.04248971193415638,65.64660493827161,0)" xlink:href="#au"/></g><path fill="#a9afb8" d="M32 76v-337h29V76H32" id="aG"/><use transform="matrix(0.04248971193415638,0,0,0.04248971193415638,0,0)" xlink:href="#aG" id="h"/><path fill="#a9afb8" d="M84 4C-5 8 30-112 23-190h32v120c0 31 7 50 39 49 72-2 45-101 50-169h31l1 190h-30c-1-10 1-25-2-33-11 22-28 36-60 37" id="aH"/><path fill="#a9afb8" d="M177-190C167-65 218 103 67 71c-23-6-38-20-44-43l32-5c15 47 100 32 89-28v-30C133-14 115 1 83 1 29 1 15-40 15-95c0-56 16-97 71-98 29-1 48 16 59 35 1-10 0-23 2-32h30zM94-22c36 0 50-32 50-73 0-42-14-75-50-75-39 0-46 34-46 75s6 73 46 73" id="aI"/><path fill="#a9afb8" d="M135-143c-3-34-86-38-87 0 15 53 115 12 119 90S17 21 10-45l28-5c4 36 97 45 98 0-10-56-113-15-118-90-4-57 82-63 122-42 12 7 21 19 24 35" id="aJ"/><path fill="#a9afb8" d="M59-47c-2 24 18 29 38 22v24C64 9 27 4 27-40v-127H5v-23h24l9-43h21v43h35v23H59v120" id="aK"/><g id="i"><use transform="matrix(0.04248971193415638,0,0,0.04248971193415638,0,0)" xlink:href="#au"/><use transform="matrix(0.04248971193415638,0,0,0.04248971193415638,10.19753086419753,0)" xlink:href="#aH"/><use transform="matrix(0.04248971193415638,0,0,0.04248971193415638,18.695473251028805,0)" xlink:href="#aI"/><use transform="matrix(0.04248971193415638,0,0,0.04248971193415638,27.193415637860078,0)" xlink:href="#aH"/><use transform="matrix(0.04248971193415638,0,0,0.04248971193415638,35.691358024691354,0)" xlink:href="#aJ"/><use transform="matrix(0.04248971193415638,0,0,0.04248971193415638,43.3395061728395,0)" xlink:href="#aK"/></g><path fill="#a9afb8" d="M110-160c48 1 74 30 74 79 0 53-28 85-80 85-65 0-83-55-86-122-5-90 50-162 133-122 14 7 22 21 27 39l-31 6c-5-40-67-38-82-6-9 19-15 44-15 74 11-20 30-34 60-33zm-7 138c34 0 49-23 49-58s-16-56-50-56c-29 0-50 16-49 49 1 36 15 65 50 65" id="aL"/><path fill="#a9afb8" d="M68-38c1 34 0 65-14 84H32c9-13 17-26 17-46H33v-38h35" id="aM"/><g id="j"><use transform="matrix(0.04248971193415638,0,0,0.04248971193415638,0,0)" xlink:href="#aL"/><use transform="matrix(0.04248971193415638,0,0,0.04248971193415638,8.497942386831275,0)" xlink:href="#aM"/></g><path fill="#a9afb8" d="M101-251c82-7 93 87 43 132L82-64C71-53 59-42 53-27h129V0H18c2-99 128-94 128-182 0-28-16-43-45-43s-46 15-49 41l-32-3c6-41 34-60 81-64" id="aN"/><path fill="#a9afb8" d="M101-251c68 0 85 55 85 127S166 4 100 4C33 4 14-52 14-124c0-73 17-127 87-127zm-1 229c47 0 54-49 54-102s-4-102-53-102c-51 0-55 48-55 102 0 53 5 102 54 102" id="aO"/><g id="k"><use transform="matrix(0.04248971193415638,0,0,0.04248971193415638,0,0)" xlink:href="#aN"/><use transform="matrix(0.04248971193415638,0,0,0.04248971193415638,8.497942386831275,0)" xlink:href="#aO"/><use transform="matrix(0.04248971193415638,0,0,0.04248971193415638,16.99588477366255,0)" xlink:href="#aN"/><use transform="matrix(0.04248971193415638,0,0,0.04248971193415638,25.493827160493822,0)" xlink:href="#aO"/></g><path fill="#333" d="M232-93c-1 65-40 97-104 97C67 4 28-28 28-90v-158h33c8 89-33 224 67 224 102 0 64-133 71-224h33v155" id="aP"/><path fill="#333" d="M135-143c-3-34-86-38-87 0 15 53 115 12 119 90S17 21 10-45l28-5c4 36 97 45 98 0-10-56-113-15-118-90-4-57 82-63 122-42 12 7 21 19 24 35" id="aQ"/><path fill="#333" d="M84 4C-5 8 30-112 23-190h32v120c0 31 7 50 39 49 72-2 45-101 50-169h31l1 190h-30c-1-10 1-25-2-33-11 22-28 36-60 37" id="aR"/><path fill="#333" d="M141-36C126-15 110 5 73 4 37 3 15-17 15-53c-1-64 63-63 125-63 3-35-9-54-41-54-24 1-41 7-42 31l-33-3c5-37 33-52 76-52 45 0 72 20 72 64v82c-1 20 7 32 28 27v20c-31 9-61-2-59-35zM48-53c0 20 12 33 32 33 41-3 63-29 60-74-43 2-92-5-92 41" id="aS"/><path fill="#333" d="M114-163C36-179 61-72 57 0H25l-1-190h30c1 12-1 29 2 39 6-27 23-49 58-41v29" id="aT"/><path fill="#333" d="M24-231v-30h32v30H24zM24 0v-190h32V0H24" id="aU"/><path fill="#333" d="M100-194c62-1 85 37 85 99 1 63-27 99-86 99S16-35 15-95c0-66 28-99 85-99zM99-20c44 1 53-31 53-75 0-43-8-75-51-75s-53 32-53 75 10 74 51 75" id="aV"/><g id="l"><use transform="matrix(0.05,0,0,0.05,0,0)" xlink:href="#aP"/><use transform="matrix(0.05,0,0,0.05,12.950000000000001,0)" xlink:href="#aQ"/><use transform="matrix(0.05,0,0,0.05,21.950000000000003,0)" xlink:href="#aR"/><use transform="matrix(0.05,0,0,0.05,31.950000000000003,0)" xlink:href="#aS"/><use transform="matrix(0.05,0,0,0.05,41.95,0)" xlink:href="#aT"/><use transform="matrix(0.05,0,0,0.05,47.900000000000006,0)" xlink:href="#aU"/><use transform="matrix(0.05,0,0,0.05,51.85,0)" xlink:href="#aV"/><use transform="matrix(0.05,0,0,0.05,61.85,0)" xlink:href="#aQ"/></g><path fill="#333" d="M85-194c31 0 48 13 60 33l-1-100h32l1 261h-30c-2-10 0-23-3-31C134-8 116 4 85 4 32 4 16-35 15-94c0-66 23-100 70-100zm9 24c-40 0-46 34-46 75 0 40 6 74 45 74 42 0 51-32 51-76 0-42-9-74-50-73" id="aW"/><g id="m"><use transform="matrix(0.05,0,0,0.05,0,0)" xlink:href="#aU"/><use transform="matrix(0.05,0,0,0.05,3.95,0)" xlink:href="#aW"/></g><g id="n"><use transform="matrix(0.05,0,0,0.05,0,0)" xlink:href="#aP"/><use transform="matrix(0.05,0,0,0.05,12.950000000000001,0)" xlink:href="#aQ"/><use transform="matrix(0.05,0,0,0.05,21.950000000000003,0)" xlink:href="#aR"/><use transform="matrix(0.05,0,0,0.05,31.950000000000003,0)" xlink:href="#aS"/><use transform="matrix(0.05,0,0,0.05,41.95,0)" xlink:href="#aT"/><use transform="matrix(0.05,0,0,0.05,47.900000000000006,0)" xlink:href="#aU"/><use transform="matrix(0.05,0,0,0.05,51.85,0)" xlink:href="#aV"/></g><path fill="#333" d="M117-194c89-4 53 116 60 194h-32v-121c0-31-8-49-39-48C34-167 62-67 57 0H25l-1-190h30c1 10-1 24 2 32 11-22 29-35 61-36" id="aX"/><path fill="#333" d="M59-47c-2 24 18 29 38 22v24C64 9 27 4 27-40v-127H5v-23h24l9-43h21v43h35v23H59v120" id="aY"/><g id="o"><use transform="matrix(0.05,0,0,0.05,0,0)" xlink:href="#aU"/><use transform="matrix(0.05,0,0,0.05,3.95,0)" xlink:href="#aX"/><use transform="matrix(0.05,0,0,0.05,13.949999999999998,0)" xlink:href="#aY"/></g><path fill="#333" d="M100-194c63 0 86 42 84 106H49c0 40 14 67 53 68 26 1 43-12 49-29l28 8c-11 28-37 45-77 45C44 4 14-33 15-96c1-61 26-98 85-98zm52 81c6-60-76-77-97-28-3 7-6 17-6 28h103" id="aZ"/><path fill="#333" d="M190 0L58-211 59 0H30v-248h39L202-35l-2-213h31V0h-41" id="ba"/><path fill="#333" d="M210-169c-67 3-38 105-44 169h-31v-121c0-29-5-50-35-48C34-165 62-65 56 0H25l-1-190h30c1 10-1 24 2 32 10-44 99-50 107 0 11-21 27-35 58-36 85-2 47 119 55 194h-31v-121c0-29-5-49-35-48" id="bb"/><g id="p"><use transform="matrix(0.05,0,0,0.05,0,0)" xlink:href="#aP"/><use transform="matrix(0.05,0,0,0.05,12.950000000000001,0)" xlink:href="#aQ"/><use transform="matrix(0.05,0,0,0.05,21.950000000000003,0)" xlink:href="#aZ"/><use transform="matrix(0.05,0,0,0.05,31.950000000000003,0)" xlink:href="#aT"/><use transform="matrix(0.05,0,0,0.05,37.900000000000006,0)" xlink:href="#ba"/><use transform="matrix(0.05,0,0,0.05,50.85000000000001,0)" xlink:href="#aS"/><use transform="matrix(0.05,0,0,0.05,60.85,0)" xlink:href="#bb"/><use transform="matrix(0.05,0,0,0.05,75.80000000000001,0)" xlink:href="#aZ"/></g><path fill="#333" d="M137 0h-34L2-248h35l83 218 83-218h36" id="bc"/><path fill="#333" d="M96-169c-40 0-48 33-48 73s9 75 48 75c24 0 41-14 43-38l32 2c-6 37-31 61-74 61-59 0-76-41-82-99-10-93 101-131 147-64 4 7 5 14 7 22l-32 3c-4-21-16-35-41-35" id="bd"/><path fill="#333" d="M106-169C34-169 62-67 57 0H25v-261h32l-1 103c12-21 28-36 61-36 89 0 53 116 60 194h-32v-121c2-32-8-49-39-48" id="be"/><path fill="#333" d="M87 75C49 33 22-17 22-94c0-76 28-126 65-167h31c-38 41-64 92-64 168S80 34 118 75H87" id="bf"/><path fill="#333" d="M54-142c48-35 137-8 131 61C196 18 31 33 14-55l32-4c7 23 22 37 52 37 35-1 51-22 54-58 4-55-73-65-99-34H22l8-134h141v27H59" id="bg"/><path fill="#333" d="M101-251c68 0 85 55 85 127S166 4 100 4C33 4 14-52 14-124c0-73 17-127 87-127zm-1 229c47 0 54-49 54-102s-4-102-53-102c-51 0-55 48-55 102 0 53 5 102 54 102" id="bh"/><path fill="#333" d="M33-261c38 41 65 92 65 168S71 34 33 75H2C39 34 66-17 66-93S39-220 2-261h31" id="bi"/><g id="q"><use transform="matrix(0.05,0,0,0.05,0,0)" xlink:href="#bc"/><use transform="matrix(0.05,0,0,0.05,10.65,0)" xlink:href="#aS"/><use transform="matrix(0.05,0,0,0.05,20.65,0)" xlink:href="#aT"/><use transform="matrix(0.05,0,0,0.05,26.599999999999994,0)" xlink:href="#bd"/><use transform="matrix(0.05,0,0,0.05,35.599999999999994,0)" xlink:href="#be"/><use transform="matrix(0.05,0,0,0.05,45.599999999999994,0)" xlink:href="#aS"/><use transform="matrix(0.05,0,0,0.05,55.599999999999994,0)" xlink:href="#aT"/><use transform="matrix(0.05,0,0,0.05,61.54999999999999,0)" xlink:href="#bf"/><use transform="matrix(0.05,0,0,0.05,67.5,0)" xlink:href="#bg"/><use transform="matrix(0.05,0,0,0.05,77.5,0)" xlink:href="#bh"/><use transform="matrix(0.05,0,0,0.05,87.5,0)" xlink:href="#bi"/></g><path fill="#333" d="M115-194c55 1 70 41 70 98S169 2 115 4C84 4 66-9 55-30l1 105H24l-1-265h31l2 30c10-21 28-34 59-34zm-8 174c40 0 45-34 45-75s-6-73-45-74c-42 0-51 32-51 76 0 43 10 73 51 73" id="bj"/><path fill="#333" d="M206 0h-36l-40-164L89 0H53L-1-190h32L70-26l43-164h34l41 164 42-164h31" id="bk"/><g id="r"><use transform="matrix(0.05,0,0,0.05,0,0)" xlink:href="#bj"/><use transform="matrix(0.05,0,0,0.05,10,0)" xlink:href="#aS"/><use transform="matrix(0.05,0,0,0.05,20,0)" xlink:href="#aQ"/><use transform="matrix(0.05,0,0,0.05,29,0)" xlink:href="#aQ"/><use transform="matrix(0.05,0,0,0.05,38,0)" xlink:href="#bk"/><use transform="matrix(0.05,0,0,0.05,50.95,0)" xlink:href="#aV"/><use transform="matrix(0.05,0,0,0.05,60.95,0)" xlink:href="#aT"/><use transform="matrix(0.05,0,0,0.05,66.9,0)" xlink:href="#aW"/></g><path fill="#333" d="M115-194c53 0 69 39 70 98 0 66-23 100-70 100C84 3 66-7 56-30L54 0H23l1-261h32v101c10-23 28-34 59-34zm-8 174c40 0 45-34 45-75 0-40-5-75-45-74-42 0-51 32-51 76 0 43 10 73 51 73" id="bl"/><g id="s"><use transform="matrix(0.05,0,0,0.05,0,0)" xlink:href="#ba"/><use transform="matrix(0.05,0,0,0.05,12.950000000000001,0)" xlink:href="#aV"/><use transform="matrix(0.05,0,0,0.05,22.950000000000003,0)" xlink:href="#bb"/><use transform="matrix(0.05,0,0,0.05,37.900000000000006,0)" xlink:href="#bl"/><use transform="matrix(0.05,0,0,0.05,47.900000000000006,0)" xlink:href="#aT"/><use transform="matrix(0.05,0,0,0.05,53.85,0)" xlink:href="#aZ"/></g><path fill="#333" d="M205 0l-28-72H64L36 0H1l101-248h38L239 0h-34zm-38-99l-47-123c-12 45-31 82-46 123h93" id="bm"/><path fill="#333" d="M24 0v-261h32V0H24" id="bn"/><g id="t"><use transform="matrix(0.05,0,0,0.05,0,0)" xlink:href="#bm"/><use transform="matrix(0.05,0,0,0.05,12,0)" xlink:href="#bj"/><use transform="matrix(0.05,0,0,0.05,22,0)" xlink:href="#aZ"/><use transform="matrix(0.05,0,0,0.05,32,0)" xlink:href="#bn"/><use transform="matrix(0.05,0,0,0.05,35.95,0)" xlink:href="#bn"/><use transform="matrix(0.05,0,0,0.05,39.900000000000006,0)" xlink:href="#aU"/><use transform="matrix(0.05,0,0,0.05,43.85000000000001,0)" xlink:href="#aW"/><use transform="matrix(0.05,0,0,0.05,53.85,0)" xlink:href="#aV"/></g><path fill="#333" d="M30-248c118-7 216 8 213 122C240-48 200 0 122 0H30v-248zM63-27c89 8 146-16 146-99s-60-101-146-95v194" id="bo"/><path fill="#333" d="M100-194c62-1 85 37 85 99 1 63-27 99-86 99S16-35 15-95c0-66 28-99 85-99zM99-20c44 1 53-31 53-75 0-43-8-75-51-75s-53 32-53 75 10 74 51 75zM76-211c8-23 27-35 38-54h36v5l-58 49H76" id="bp"/><g id="u"><use transform="matrix(0.05,0,0,0.05,0,0)" xlink:href="#bo"/><use transform="matrix(0.05,0,0,0.05,12.950000000000001,0)" xlink:href="#aU"/><use transform="matrix(0.05,0,0,0.05,16.900000000000002,0)" xlink:href="#aT"/><use transform="matrix(0.05,0,0,0.05,22.85,0)" xlink:href="#aZ"/><use transform="matrix(0.05,0,0,0.05,32.85,0)" xlink:href="#bd"/><use transform="matrix(0.05,0,0,0.05,41.85,0)" xlink:href="#bd"/><use transform="matrix(0.05,0,0,0.05,50.85,0)" xlink:href="#aU"/><use transform="matrix(0.05,0,0,0.05,54.800000000000004,0)" xlink:href="#bp"/><use transform="matrix(0.05,0,0,0.05,64.80000000000001,0)" xlink:href="#aX"/></g><path fill="#333" d="M212-179c-10-28-35-45-73-45-59 0-87 40-87 99 0 60 29 101 89 101 43 0 62-24 78-52l27 14C228-24 195 4 139 4 59 4 22-46 18-125c-6-104 99-153 187-111 19 9 31 26 39 46" id="bq"/><g id="v"><use transform="matrix(0.05,0,0,0.05,0,0)" xlink:href="#bq"/><use transform="matrix(0.05,0,0,0.05,12.950000000000001,0)" xlink:href="#aV"/><use transform="matrix(0.05,0,0,0.05,22.950000000000003,0)" xlink:href="#aT"/><use transform="matrix(0.05,0,0,0.05,28.900000000000002,0)" xlink:href="#aT"/><use transform="matrix(0.05,0,0,0.05,34.85,0)" xlink:href="#aZ"/><use transform="matrix(0.05,0,0,0.05,44.85,0)" xlink:href="#aV"/></g><path fill="#333" d="M127-220V0H93v-220H8v-28h204v28h-85" id="br"/><path fill="#333" d="M101-234c-31-9-42 10-38 44h38v23H63V0H32v-167H5v-23h27c-7-52 17-82 69-68v24" id="bs"/><g id="w"><use transform="matrix(0.05,0,0,0.05,0,0)" xlink:href="#br"/><use transform="matrix(0.05,0,0,0.05,8.950000000000001,0)" xlink:href="#aZ"/><use transform="matrix(0.05,0,0,0.05,18.950000000000003,0)" xlink:href="#bn"/><use transform="matrix(0.05,0,0,0.05,22.900000000000002,0)" xlink:href="#aZ"/><use transform="matrix(0.05,0,0,0.05,32.900000000000006,0)" xlink:href="#bs"/><use transform="matrix(0.05,0,0,0.05,37.900000000000006,0)" xlink:href="#aV"/><use transform="matrix(0.05,0,0,0.05,47.900000000000006,0)" xlink:href="#aX"/><use transform="matrix(0.05,0,0,0.05,57.900000000000006,0)" xlink:href="#aV"/></g><path fill="#333" d="M233-177c-1 41-23 64-60 70L243 0h-38l-65-103H63V0H30v-248c88 3 205-21 203 71zM63-129c60-2 137 13 137-47 0-61-80-42-137-45v92" id="bt"/><g id="x"><use transform="matrix(0.05,0,0,0.05,0,0)" xlink:href="#bt"/><use transform="matrix(0.05,0,0,0.05,12.950000000000001,0)" xlink:href="#aV"/><use transform="matrix(0.05,0,0,0.05,22.950000000000003,0)" xlink:href="#bn"/></g><g id="y"><use transform="matrix(0.05,0,0,0.05,0,0)" xlink:href="#bt"/><use transform="matrix(0.05,0,0,0.05,12.950000000000001,0)" xlink:href="#aV"/><use transform="matrix(0.05,0,0,0.05,22.950000000000003,0)" xlink:href="#bn"/></g><g id="z"><use transform="matrix(0.05,0,0,0.05,0,0)" xlink:href="#aW"/><use transform="matrix(0.05,0,0,0.05,10,0)" xlink:href="#aZ"/><use transform="matrix(0.05,0,0,0.05,20,0)" xlink:href="#aQ"/><use transform="matrix(0.05,0,0,0.05,29,0)" xlink:href="#bd"/><use transform="matrix(0.05,0,0,0.05,38,0)" xlink:href="#bt"/><use transform="matrix(0.05,0,0,0.05,50.95,0)" xlink:href="#aV"/><use transform="matrix(0.05,0,0,0.05,60.95,0)" xlink:href="#bn"/></g><path fill="#333" d="M108 0H70L1-190h34L89-25l56-165h34" id="bu"/><path fill="#333" d="M101-251c82-7 93 87 43 132L82-64C71-53 59-42 53-27h129V0H18c2-99 128-94 128-182 0-28-16-43-45-43s-46 15-49 41l-32-3c6-41 34-60 81-64" id="bv"/><g id="A"><use transform="matrix(0.05,0,0,0.05,0,0)" xlink:href="#bu"/><use transform="matrix(0.05,0,0,0.05,9,0)" xlink:href="#aS"/><use transform="matrix(0.05,0,0,0.05,19,0)" xlink:href="#aT"/><use transform="matrix(0.05,0,0,0.05,24.95,0)" xlink:href="#bd"/><use transform="matrix(0.05,0,0,0.05,33.95,0)" xlink:href="#be"/><use transform="matrix(0.05,0,0,0.05,43.95,0)" xlink:href="#aS"/><use transform="matrix(0.05,0,0,0.05,53.95,0)" xlink:href="#aT"/><use transform="matrix(0.05,0,0,0.05,59.900000000000006,0)" xlink:href="#bf"/><use transform="matrix(0.05,0,0,0.05,65.85000000000001,0)" xlink:href="#bv"/><use transform="matrix(0.05,0,0,0.05,75.85000000000001,0)" xlink:href="#bh"/><use transform="matrix(0.05,0,0,0.05,85.85000000000001,0)" xlink:href="#bi"/></g><path fill="#333" d="M30-248c87 1 191-15 191 75 0 78-77 80-158 76V0H30v-248zm33 125c57 0 124 11 124-50 0-59-68-47-124-48v98" id="bw"/><g id="B"><use transform="matrix(0.05,0,0,0.05,0,0)" xlink:href="#bw"/><use transform="matrix(0.05,0,0,0.05,12,0)" xlink:href="#aZ"/><use transform="matrix(0.05,0,0,0.05,22,0)" xlink:href="#aW"/><use transform="matrix(0.05,0,0,0.05,32,0)" xlink:href="#aU"/><use transform="matrix(0.05,0,0,0.05,35.95,0)" xlink:href="#aW"/><use transform="matrix(0.05,0,0,0.05,45.95,0)" xlink:href="#aV"/></g><g id="C"><use transform="matrix(0.05,0,0,0.05,0,0)" xlink:href="#aU"/><use transform="matrix(0.05,0,0,0.05,3.95,0)" xlink:href="#aW"/><use transform="matrix(0.05,0,0,0.05,13.949999999999998,0)" xlink:href="#bw"/><use transform="matrix(0.05,0,0,0.05,25.950000000000003,0)" xlink:href="#aZ"/><use transform="matrix(0.05,0,0,0.05,35.95,0)" xlink:href="#aW"/><use transform="matrix(0.05,0,0,0.05,45.95,0)" xlink:href="#aU"/><use transform="matrix(0.05,0,0,0.05,49.900000000000006,0)" xlink:href="#aW"/><use transform="matrix(0.05,0,0,0.05,59.900000000000006,0)" xlink:href="#aV"/></g><path fill="#333" d="M30 0v-248h187v28H63v79h144v27H63v87h162V0H30" id="bx"/><g id="D"><use transform="matrix(0.05,0,0,0.05,0,0)" xlink:href="#bx"/><use transform="matrix(0.05,0,0,0.05,12,0)" xlink:href="#aQ"/><use transform="matrix(0.05,0,0,0.05,21,0)" xlink:href="#aY"/><use transform="matrix(0.05,0,0,0.05,26,0)" xlink:href="#aS"/><use transform="matrix(0.05,0,0,0.05,36,0)" xlink:href="#aW"/><use transform="matrix(0.05,0,0,0.05,46,0)" xlink:href="#aV"/><use transform="matrix(0.05,0,0,0.05,56,0)" xlink:href="#bw"/><use transform="matrix(0.05,0,0,0.05,68,0)" xlink:href="#aZ"/><use transform="matrix(0.05,0,0,0.05,78,0)" xlink:href="#aW"/><use transform="matrix(0.05,0,0,0.05,88,0)" xlink:href="#aU"/><use transform="matrix(0.05,0,0,0.05,91.95,0)" xlink:href="#aW"/><use transform="matrix(0.05,0,0,0.05,101.95,0)" xlink:href="#aV"/></g><path fill="#333" d="M63-220v92h138v28H63V0H30v-248h175v28H63" id="by"/><g id="E"><use transform="matrix(0.05,0,0,0.05,0,0)" xlink:href="#by"/><use transform="matrix(0.05,0,0,0.05,10.950000000000001,0)" xlink:href="#aS"/><use transform="matrix(0.05,0,0,0.05,20.950000000000003,0)" xlink:href="#bd"/><use transform="matrix(0.05,0,0,0.05,29.950000000000003,0)" xlink:href="#aY"/><use transform="matrix(0.05,0,0,0.05,34.95,0)" xlink:href="#aR"/><use transform="matrix(0.05,0,0,0.05,44.95,0)" xlink:href="#aT"/><use transform="matrix(0.05,0,0,0.05,50.900000000000006,0)" xlink:href="#aS"/></g><path fill="#333" d="M33 0v-248h34V0H33" id="bz"/><g id="F"><use transform="matrix(0.05,0,0,0.05,0,0)" xlink:href="#bz"/><use transform="matrix(0.05,0,0,0.05,5,0)" xlink:href="#aW"/></g><g id="G"><use transform="matrix(0.05,0,0,0.05,0,0)" xlink:href="#bs"/><use transform="matrix(0.05,0,0,0.05,5,0)" xlink:href="#aS"/><use transform="matrix(0.05,0,0,0.05,15,0)" xlink:href="#bd"/><use transform="matrix(0.05,0,0,0.05,24,0)" xlink:href="#aY"/><use transform="matrix(0.05,0,0,0.05,29,0)" xlink:href="#aR"/><use transform="matrix(0.05,0,0,0.05,39,0)" xlink:href="#aT"/><use transform="matrix(0.05,0,0,0.05,44.95,0)" xlink:href="#aS"/></g><g id="H"><use transform="matrix(0.05,0,0,0.05,0,0)" xlink:href="#by"/><use transform="matrix(0.05,0,0,0.05,10.950000000000001,0)" xlink:href="#aZ"/><use transform="matrix(0.05,0,0,0.05,20.950000000000003,0)" xlink:href="#bd"/><use transform="matrix(0.05,0,0,0.05,29.950000000000003,0)" xlink:href="#be"/><use transform="matrix(0.05,0,0,0.05,39.95,0)" xlink:href="#aS"/></g><g id="I"><use transform="matrix(0.05,0,0,0.05,0,0)" xlink:href="#bo"/><use transform="matrix(0.05,0,0,0.05,12.950000000000001,0)" xlink:href="#aS"/><use transform="matrix(0.05,0,0,0.05,22.950000000000003,0)" xlink:href="#aY"/><use transform="matrix(0.05,0,0,0.05,27.950000000000003,0)" xlink:href="#aZ"/></g><g id="J"><use transform="matrix(0.05,0,0,0.05,0,0)" xlink:href="#bo"/><use transform="matrix(0.05,0,0,0.05,12.950000000000001,0)" xlink:href="#aZ"/><use transform="matrix(0.05,0,0,0.05,22.950000000000003,0)" xlink:href="#aY"/><use transform="matrix(0.05,0,0,0.05,27.950000000000003,0)" xlink:href="#aS"/><use transform="matrix(0.05,0,0,0.05,37.95,0)" xlink:href="#bn"/><use transform="matrix(0.05,0,0,0.05,41.900000000000006,0)" xlink:href="#bn"/><use transform="matrix(0.05,0,0,0.05,45.85000000000001,0)" xlink:href="#aZ"/></g><g id="K"><use transform="matrix(0.05,0,0,0.05,0,0)" xlink:href="#by"/><use transform="matrix(0.05,0,0,0.05,10.950000000000001,0)" xlink:href="#aS"/><use transform="matrix(0.05,0,0,0.05,20.950000000000003,0)" xlink:href="#bd"/><use transform="matrix(0.05,0,0,0.05,29.950000000000003,0)" xlink:href="#aY"/><use transform="matrix(0.05,0,0,0.05,34.95,0)" xlink:href="#aR"/><use transform="matrix(0.05,0,0,0.05,44.95,0)" xlink:href="#aT"/><use transform="matrix(0.05,0,0,0.05,50.900000000000006,0)" xlink:href="#aS"/></g><g id="L"><use transform="matrix(0.05,0,0,0.05,0,0)" xlink:href="#aU"/><use transform="matrix(0.05,0,0,0.05,3.95,0)" xlink:href="#aW"/><use transform="matrix(0.05,0,0,0.05,13.949999999999998,0)" xlink:href="#bo"/><use transform="matrix(0.05,0,0,0.05,26.899999999999995,0)" xlink:href="#aZ"/><use transform="matrix(0.05,0,0,0.05,36.9,0)" xlink:href="#aY"/><use transform="matrix(0.05,0,0,0.05,41.9,0)" xlink:href="#aS"/><use transform="matrix(0.05,0,0,0.05,51.900000000000006,0)" xlink:href="#bn"/><use transform="matrix(0.05,0,0,0.05,55.85,0)" xlink:href="#bn"/><use transform="matrix(0.05,0,0,0.05,59.800000000000004,0)" xlink:href="#aZ"/></g><g id="M"><use transform="matrix(0.05,0,0,0.05,0,0)" xlink:href="#bq"/><use transform="matrix(0.05,0,0,0.05,12.950000000000001,0)" xlink:href="#aS"/><use transform="matrix(0.05,0,0,0.05,22.950000000000003,0)" xlink:href="#aX"/><use transform="matrix(0.05,0,0,0.05,32.95,0)" xlink:href="#aY"/><use transform="matrix(0.05,0,0,0.05,37.95,0)" xlink:href="#aU"/><use transform="matrix(0.05,0,0,0.05,41.900000000000006,0)" xlink:href="#aW"/><use transform="matrix(0.05,0,0,0.05,51.900000000000006,0)" xlink:href="#aS"/><use transform="matrix(0.05,0,0,0.05,61.900000000000006,0)" xlink:href="#aW"/></g><g id="N"><use transform="matrix(0.05,0,0,0.05,0,0)" xlink:href="#bw"/><use transform="matrix(0.05,0,0,0.05,12,0)" xlink:href="#aT"/><use transform="matrix(0.05,0,0,0.05,17.95,0)" xlink:href="#aZ"/><use transform="matrix(0.05,0,0,0.05,27.950000000000003,0)" xlink:href="#bd"/><use transform="matrix(0.05,0,0,0.05,36.95,0)" xlink:href="#aU"/><use transform="matrix(0.05,0,0,0.05,40.900000000000006,0)" xlink:href="#aV"/></g><path fill="#333" d="M240 0l2-218c-23 76-54 145-80 218h-23L58-218 59 0H30v-248h44l77 211c21-75 51-140 76-211h43V0h-30" id="bA"/><path fill="#333" d="M179-190L93 31C79 59 56 82 12 73V49c39 6 53-20 64-50L1-190h34L92-34l54-156h33" id="bB"/><g id="O"><use transform="matrix(0.05,0,0,0.05,0,0)" xlink:href="#bA"/><use transform="matrix(0.05,0,0,0.05,14.950000000000001,0)" xlink:href="#aV"/><use transform="matrix(0.05,0,0,0.05,24.950000000000003,0)" xlink:href="#aX"/><use transform="matrix(0.05,0,0,0.05,34.95,0)" xlink:href="#aZ"/><use transform="matrix(0.05,0,0,0.05,44.95,0)" xlink:href="#bB"/></g><g id="P"><use transform="matrix(0.05,0,0,0.05,0,0)" xlink:href="#bw"/><use transform="matrix(0.05,0,0,0.05,12,0)" xlink:href="#bn"/><use transform="matrix(0.05,0,0,0.05,15.949999999999998,0)" xlink:href="#aS"/><use transform="matrix(0.05,0,0,0.05,25.950000000000003,0)" xlink:href="#aY"/><use transform="matrix(0.05,0,0,0.05,30.950000000000003,0)" xlink:href="#aV"/></g><g id="Q"><use transform="matrix(0.05,0,0,0.05,0,0)" xlink:href="#aU"/><use transform="matrix(0.05,0,0,0.05,3.95,0)" xlink:href="#aW"/><use transform="matrix(0.05,0,0,0.05,13.949999999999998,0)" xlink:href="#bw"/><use transform="matrix(0.05,0,0,0.05,25.950000000000003,0)" xlink:href="#bn"/><use transform="matrix(0.05,0,0,0.05,29.899999999999995,0)" xlink:href="#aS"/><use transform="matrix(0.05,0,0,0.05,39.9,0)" xlink:href="#aY"/><use transform="matrix(0.05,0,0,0.05,44.9,0)" xlink:href="#aV"/></g><g id="R"><use transform="matrix(0.05,0,0,0.05,0,0)" xlink:href="#bo"/><use transform="matrix(0.05,0,0,0.05,12.950000000000001,0)" xlink:href="#aZ"/><use transform="matrix(0.05,0,0,0.05,22.950000000000003,0)" xlink:href="#aQ"/><use transform="matrix(0.05,0,0,0.05,31.950000000000003,0)" xlink:href="#bd"/><use transform="matrix(0.05,0,0,0.05,40.95,0)" xlink:href="#bw"/><use transform="matrix(0.05,0,0,0.05,52.95,0)" xlink:href="#bn"/><use transform="matrix(0.05,0,0,0.05,56.900000000000006,0)" xlink:href="#aS"/><use transform="matrix(0.05,0,0,0.05,66.9,0)" xlink:href="#aY"/><use transform="matrix(0.05,0,0,0.05,71.9,0)" xlink:href="#aV"/></g><g id="S"><use transform="matrix(0.05,0,0,0.05,0,0)" xlink:href="#bw"/><use transform="matrix(0.05,0,0,0.05,12,0)" xlink:href="#aT"/><use transform="matrix(0.05,0,0,0.05,17.95,0)" xlink:href="#aZ"/><use transform="matrix(0.05,0,0,0.05,27.950000000000003,0)" xlink:href="#bd"/><use transform="matrix(0.05,0,0,0.05,36.95,0)" xlink:href="#aU"/><use transform="matrix(0.05,0,0,0.05,40.900000000000006,0)" xlink:href="#aV"/><use transform="matrix(0.05,0,0,0.05,50.900000000000006,0)" xlink:href="#bw"/><use transform="matrix(0.05,0,0,0.05,62.900000000000006,0)" xlink:href="#bn"/><use transform="matrix(0.05,0,0,0.05,66.85000000000001,0)" xlink:href="#aS"/><use transform="matrix(0.05,0,0,0.05,76.85000000000001,0)" xlink:href="#aY"/><use transform="matrix(0.05,0,0,0.05,81.85000000000001,0)" xlink:href="#aV"/></g><path fill="#333" d="M185-189c-5-48-123-54-124 2 14 75 158 14 163 119 3 78-121 87-175 55-17-10-28-26-33-46l33-7c5 56 141 63 141-1 0-78-155-14-162-118-5-82 145-84 179-34 5 7 8 16 11 25" id="bC"/><g id="T"><use transform="matrix(0.05,0,0,0.05,0,0)" xlink:href="#bC"/><use transform="matrix(0.05,0,0,0.05,12,0)" xlink:href="#aR"/><use transform="matrix(0.05,0,0,0.05,22,0)" xlink:href="#bd"/><use transform="matrix(0.05,0,0,0.05,31,0)" xlink:href="#aR"/><use transform="matrix(0.05,0,0,0.05,41,0)" xlink:href="#aT"/><use transform="matrix(0.05,0,0,0.05,46.95,0)" xlink:href="#aQ"/><use transform="matrix(0.05,0,0,0.05,55.95,0)" xlink:href="#aS"/><use transform="matrix(0.05,0,0,0.05,65.95,0)" xlink:href="#bn"/></g><g id="U"><use transform="matrix(0.05,0,0,0.05,0,0)" xlink:href="#aU"/><use transform="matrix(0.05,0,0,0.05,3.95,0)" xlink:href="#aW"/><use transform="matrix(0.05,0,0,0.05,13.949999999999998,0)" xlink:href="#bC"/><use transform="matrix(0.05,0,0,0.05,25.950000000000003,0)" xlink:href="#aR"/><use transform="matrix(0.05,0,0,0.05,35.95,0)" xlink:href="#bd"/><use transform="matrix(0.05,0,0,0.05,44.95,0)" xlink:href="#aR"/><use transform="matrix(0.05,0,0,0.05,54.95,0)" xlink:href="#aT"/><use transform="matrix(0.05,0,0,0.05,60.900000000000006,0)" xlink:href="#aQ"/><use transform="matrix(0.05,0,0,0.05,69.9,0)" xlink:href="#aS"/><use transform="matrix(0.05,0,0,0.05,79.9,0)" xlink:href="#bn"/></g><g id="V"><use transform="matrix(0.05,0,0,0.05,0,0)" xlink:href="#bz"/><use transform="matrix(0.05,0,0,0.05,5,0)" xlink:href="#aX"/><use transform="matrix(0.05,0,0,0.05,15,0)" xlink:href="#aY"/></g><g id="W"><use transform="matrix(0.05,0,0,0.05,0,0)" xlink:href="#bo"/><use transform="matrix(0.05,0,0,0.05,12.950000000000001,0)" xlink:href="#aZ"/><use transform="matrix(0.05,0,0,0.05,22.950000000000003,0)" xlink:href="#aQ"/><use transform="matrix(0.05,0,0,0.05,31.950000000000003,0)" xlink:href="#bd"/><use transform="matrix(0.05,0,0,0.05,40.95,0)" xlink:href="#aT"/><use transform="matrix(0.05,0,0,0.05,46.900000000000006,0)" xlink:href="#aU"/><use transform="matrix(0.05,0,0,0.05,50.85000000000001,0)" xlink:href="#bj"/><use transform="matrix(0.05,0,0,0.05,60.85,0)" xlink:href="#bd"/><use transform="matrix(0.05,0,0,0.05,69.85000000000001,0)" xlink:href="#aU"/><use transform="matrix(0.05,0,0,0.05,73.80000000000001,0)" xlink:href="#bp"/><use transform="matrix(0.05,0,0,0.05,83.80000000000001,0)" xlink:href="#aX"/></g><g id="X"><use transform="matrix(0.05,0,0,0.05,0,0)" xlink:href="#bA"/><use transform="matrix(0.05,0,0,0.05,14.950000000000001,0)" xlink:href="#aV"/><use transform="matrix(0.05,0,0,0.05,24.950000000000003,0)" xlink:href="#aW"/><use transform="matrix(0.05,0,0,0.05,34.95,0)" xlink:href="#aV"/></g><g id="Y"><use transform="matrix(0.05,0,0,0.05,0,0)" xlink:href="#aW"/><use transform="matrix(0.05,0,0,0.05,10,0)" xlink:href="#aZ"/></g><path fill="#333" d="M177-190C167-65 218 103 67 71c-23-6-38-20-44-43l32-5c15 47 100 32 89-28v-30C133-14 115 1 83 1 29 1 15-40 15-95c0-56 16-97 71-98 29-1 48 16 59 35 1-10 0-23 2-32h30zM94-22c36 0 50-32 50-73 0-42-14-75-50-75-39 0-46 34-46 75s6 73 46 73" id="bD"/><g id="Z"><use transform="matrix(0.05,0,0,0.05,0,0)" xlink:href="#bw"/><use transform="matrix(0.05,0,0,0.05,12,0)" xlink:href="#aS"/><use transform="matrix(0.05,0,0,0.05,22,0)" xlink:href="#bD"/><use transform="matrix(0.05,0,0,0.05,32,0)" xlink:href="#aV"/></g><g id="aa"><use transform="matrix(0.05,0,0,0.05,0,0)" xlink:href="#aU"/><use transform="matrix(0.05,0,0,0.05,3.95,0)" xlink:href="#aW"/><use transform="matrix(0.05,0,0,0.05,13.949999999999998,0)" xlink:href="#bA"/><use transform="matrix(0.05,0,0,0.05,28.899999999999995,0)" xlink:href="#aV"/><use transform="matrix(0.05,0,0,0.05,38.9,0)" xlink:href="#aW"/><use transform="matrix(0.05,0,0,0.05,48.9,0)" xlink:href="#aV"/><use transform="matrix(0.05,0,0,0.05,58.900000000000006,0)" xlink:href="#bw"/><use transform="matrix(0.05,0,0,0.05,70.9,0)" xlink:href="#aS"/><use transform="matrix(0.05,0,0,0.05,80.9,0)" xlink:href="#bD"/><use transform="matrix(0.05,0,0,0.05,90.9,0)" xlink:href="#aV"/></g><path fill="#333" d="M118-194c89-4 53 116 60 194h-32v-121c0-31-8-49-39-48C35-167 63-67 58 0H26l-1-190h30c1 10-1 24 2 32 11-22 29-35 61-36zm47-64c-3 23-9 48-36 47-26-1-65-44-74 0H39c4-23 8-48 36-47s64 44 74 0h16" id="bE"/><g id="ab"><use transform="matrix(0.05,0,0,0.05,0,0)" xlink:href="#br"/><use transform="matrix(0.05,0,0,0.05,8.950000000000001,0)" xlink:href="#aS"/><use transform="matrix(0.05,0,0,0.05,18.950000000000003,0)" xlink:href="#bb"/><use transform="matrix(0.05,0,0,0.05,33.900000000000006,0)" xlink:href="#aS"/><use transform="matrix(0.05,0,0,0.05,43.900000000000006,0)" xlink:href="#bE"/><use transform="matrix(0.05,0,0,0.05,53.900000000000006,0)" xlink:href="#aV"/><use transform="matrix(0.05,0,0,0.05,63.900000000000006,0)" xlink:href="#bw"/><use transform="matrix(0.05,0,0,0.05,75.9,0)" xlink:href="#bn"/><use transform="matrix(0.05,0,0,0.05,79.85000000000001,0)" xlink:href="#aS"/><use transform="matrix(0.05,0,0,0.05,89.85000000000001,0)" xlink:href="#aY"/><use transform="matrix(0.05,0,0,0.05,94.85000000000001,0)" xlink:href="#aV"/></g><g id="ac"><use transform="matrix(0.05,0,0,0.05,0,0)" xlink:href="#aU"/><use transform="matrix(0.05,0,0,0.05,3.95,0)" xlink:href="#aW"/><use transform="matrix(0.05,0,0,0.05,13.949999999999998,0)" xlink:href="#br"/><use transform="matrix(0.05,0,0,0.05,22.9,0)" xlink:href="#aS"/><use transform="matrix(0.05,0,0,0.05,32.9,0)" xlink:href="#bb"/><use transform="matrix(0.05,0,0,0.05,47.85,0)" xlink:href="#aS"/><use transform="matrix(0.05,0,0,0.05,57.85,0)" xlink:href="#bE"/><use transform="matrix(0.05,0,0,0.05,67.85,0)" xlink:href="#aV"/></g><g id="ad"><use transform="matrix(0.05,0,0,0.05,0,0)" xlink:href="#bq"/><use transform="matrix(0.05,0,0,0.05,12.950000000000001,0)" xlink:href="#bn"/><use transform="matrix(0.05,0,0,0.05,16.900000000000002,0)" xlink:href="#aS"/><use transform="matrix(0.05,0,0,0.05,26.900000000000002,0)" xlink:href="#bu"/><use transform="matrix(0.05,0,0,0.05,35.900000000000006,0)" xlink:href="#aZ"/></g><g id="ae"><use transform="matrix(0.05,0,0,0.05,0,0)" xlink:href="#bq"/><use transform="matrix(0.05,0,0,0.05,12.950000000000001,0)" xlink:href="#aS"/><use transform="matrix(0.05,0,0,0.05,22.950000000000003,0)" xlink:href="#bb"/><use transform="matrix(0.05,0,0,0.05,37.900000000000006,0)" xlink:href="#bj"/><use transform="matrix(0.05,0,0,0.05,47.900000000000006,0)" xlink:href="#aV"/></g></defs></g></svg>